<?xml version="1.0" standalone="no"?>
<!DOCTYPE svg PUBLIC "-//W3C//DTD SVG 20010904//EN"
 "http://www.w3.org/TR/2001/REC-SVG-20010904/DTD/svg10.dtd">
<svg version="1.0" xmlns="http://www.w3.org/2000/svg"
 width="260.000000pt" height="260.000000pt" viewBox="0 0 260.000000 260.000000"
 preserveAspectRatio="xMidYMid meet">
<metadata>
Created by potrace 1.11, written by Peter Selinger 2001-2013
</metadata>
<g transform="translate(0.000000,260.000000) scale(0.100000,-0.100000)"
fill="#000000" stroke="none">
<path d="M0 1300 l0 -1300 1300 0 1300 0 0 1300 0 1300 -1300 0 -1300 0 0
-1300z m2146 745 c24 -10 39 -25 50 -51 19 -46 11 -83 -27 -120 -56 -54 -137
-31 -170 47 -16 40 11 101 55 123 39 19 48 20 92 1z m-624 -220 c225 -34 343
-127 343 -270 0 -100 -64 -181 -174 -220 l-36 -12 45 -13 c183 -50 271 -174
229 -324 -14 -50 -89 -131 -151 -162 -106 -54 -139 -57 -615 -61 l-443 -4 -2
483 -3 483 -75 32 c-62 27 -76 36 -78 58 l-3 25 433 0 c328 0 456 -4 530 -15z"/>
<path d="M978 1724 c-5 -4 -8 -85 -8 -181 l0 -173 223 0 c129 0 239 5 262 11
92 25 140 93 133 185 -6 70 -29 101 -96 132 -55 25 -65 26 -282 30 -124 2
-228 1 -232 -4z"/>
<path d="M977 1253 c-4 -3 -7 -91 -7 -196 l0 -189 268 4 267 3 58 28 c70 35
97 79 97 159 0 108 -66 167 -206 188 -77 11 -467 14 -477 3z"/>
</g>
</svg>
